<svg xmlns="http://www.w3.org/2000/svg" viewBox="0 0 512 512">
<title>Procella</title>
<style>:root{--b:#0D1B2A;--c:#00D4FF;--d:#1B2838;--e:#FFB800;--f:#F59E0B}@media(prefers-color-scheme:light){:root{--b:#E2E8F0;--c:#0D1B2A;--d:#4A5568}}</style>
<rect width="512" height="512" rx="64" fill="var(--b)"/>
<g transform="translate(64 64)scale(16)">
<path d="M3 13.5Q1.5 15 1 17M3.5 14.5Q2 16 1.5 18.5M4 15.5Q2.5 17 2.5 19.5" stroke="var(--d)" stroke-width=".6" stroke-linecap="round" fill="none"/>
<path d="M22 10.5 20 8.5 17.5 7.5 14 6.5 10 6 7.5 6.5 5 4 3 2 4 5.5 5.5 7.5 4 10 3 13 2 15.5 4 14.5 6 14 7 15.5 8 18 9.5 20.5 11 18.5 13.5 16 16 13.5 19 12 21 11Z" fill="#fff" stroke="#fff" stroke-width=".7" stroke-linejoin="round"/>
<path d="M21.5 10.7 20 9 17.5 8 14 7 10.5 6.5 8 7 5.5 4.5 3.5 2.5 4.5 5.5 6 8 4.5 10.5 3.5 13 2.5 15 4.5 14 6.5 13.5 7.5 15.5 8.5 18 9.5 19.5 10.5 18 12.5 16 15 14 18 12 20.5 11Z" fill="var(--c)"/>
<path d="M8 7 5.5 4.5 3.5 2.5 4.5 5.5 6 8 8 8.5 11 7.5 14 7 10.5 6.5Z" fill="var(--d)"/>
<path d="M14 7 10.5 6.5 8.5 7.5 10 9 14 8.5 17 8Z" fill="var(--d)" opacity=".7"/>
<path d="M6.5 13.5 4.5 10.5 3.5 13 2.5 15 4.5 14Z" fill="var(--d)" opacity=".6"/>
<circle cx="18.8" cy="9.2" r=".55" fill="var(--e)"/>
<path d="M20 9 22 10.5 20.5 11 19.5 10Z" fill="var(--f)"/>
</g>
</svg>
